<svg viewBox="0 0 640 400" xmlns="http://www.w3.org/2000/svg" role="img" aria-label="A multi-page website next to search results and a rising ranking chart">
  <rect width="640" height="400" fill="#f5f5f5"/>

  <!-- stacked pages, left -->
  <rect x="72" y="96" width="130" height="196" rx="12" fill="#fff" stroke="#b3b3b3" stroke-width="1.5"/>
  <rect x="88" y="80" width="130" height="196" rx="12" fill="#fff" stroke="#b3b3b3" stroke-width="1.5"/>
  <rect x="104" y="64" width="130" height="196" rx="12" fill="#fff" stroke="#000" stroke-width="1.5"/>
  <rect x="122" y="86" width="70" height="10" rx="5" fill="#000"/>
  <rect x="122" y="106" width="94" height="6" rx="3" fill="#b3b3b3"/>
  <rect x="122" y="120" width="80" height="6" rx="3" fill="#b3b3b3"/>
  <rect x="122" y="144" width="94" height="52" rx="8" fill="#f5f5f5"/>
  <rect x="122" y="210" width="56" height="20" rx="10" fill="#ed4337"/>

  <!-- search bar -->
  <rect x="286" y="72" width="282" height="46" rx="23" fill="#fff" stroke="#000" stroke-width="1.5"/>
  <circle cx="316" cy="95" r="10" fill="none" stroke="#000" stroke-width="1.5"/>
  <path d="M323.5 102.5L332 111" stroke="#000" stroke-width="1.5" stroke-linecap="round"/>
  <rect x="344" y="90" width="126" height="10" rx="5" fill="#b3b3b3"/>

  <!-- result 1 (yours) -->
  <rect x="286" y="140" width="282" height="62" rx="10" fill="#fff" stroke="#000" stroke-width="1.5"/>
  <rect x="304" y="156" width="10" height="10" rx="5" fill="#ed4337"/>
  <rect x="326" y="155" width="140" height="12" rx="6" fill="#000"/>
  <rect x="304" y="178" width="200" height="6" rx="3" fill="#b3b3b3"/>

  <!-- result 2 -->
  <rect x="286" y="214" width="282" height="46" rx="10" fill="#fff" stroke="#b3b3b3" stroke-width="1.5"/>
  <rect x="304" y="230" width="120" height="8" rx="4" fill="#b3b3b3"/>
  <rect x="304" y="244" width="176" height="5" rx="2.5" fill="#e0e0e0"/>

  <!-- result 3 -->
  <rect x="286" y="272" width="282" height="46" rx="10" fill="#fff" stroke="#b3b3b3" stroke-width="1.5"/>
  <rect x="304" y="288" width="96" height="8" rx="4" fill="#b3b3b3"/>
  <rect x="304" y="302" width="150" height="5" rx="2.5" fill="#e0e0e0"/>

  <!-- rising ranking bars -->
  <rect x="104" y="300" width="18" height="26" rx="4" fill="#b3b3b3"/>
  <rect x="132" y="288" width="18" height="38" rx="4" fill="#b3b3b3"/>
  <rect x="160" y="272" width="18" height="54" rx="4" fill="#000"/>
  <rect x="188" y="252" width="18" height="74" rx="4" fill="#ed4337"/>
  <path d="M104 296l100-56" stroke="#000" stroke-width="1.5" stroke-linecap="round" stroke-dasharray="5 6"/>
</svg>
